# This file uses centimeters as units for non-parametric coordinates.

mtllib Outlet.mtl
g default
v 0.385002 0.225057 0.049629
v 0.211038 0.399022 0.049629
v -0.026602 0.462697 0.049629
v -0.264242 0.399022 0.049629
v -0.438207 0.225057 0.049629
v -0.501882 -0.012583 0.049629
v -0.438207 -0.250222 0.049629
v -0.264242 -0.424187 0.049629
v -0.026602 -0.487862 0.049629
v 0.211038 -0.424187 0.049629
v 0.385002 -0.250222 0.049629
v 0.448677 -0.012583 0.049629
v 0.353670 0.206968 0.181818
v 0.192948 0.367690 0.181818
v -0.026602 0.426519 0.181818
v -0.246153 0.367690 0.181818
v -0.406875 0.206968 0.181818
v -0.465704 -0.012583 0.181818
v -0.406875 -0.232133 0.181818
v -0.246153 -0.392855 0.181818
v -0.026602 -0.451684 0.181818
v 0.192948 -0.392855 0.181818
v 0.353670 -0.232133 0.181818
v 0.412499 -0.012583 0.181818
v 0.264446 0.155454 0.293882
v 0.141434 0.278466 0.293882
v -0.026602 0.323491 0.293882
v -0.194639 0.278466 0.293882
v -0.317650 0.155454 0.293882
v -0.362676 -0.012583 0.293882
v -0.317650 -0.180619 0.293882
v -0.194639 -0.303631 0.293882
v -0.026602 -0.348656 0.293882
v 0.141434 -0.303631 0.293882
v 0.264446 -0.180619 0.293882
v 0.309471 -0.012583 0.293882
v 0.130912 0.078358 0.368761
v 0.064339 0.144932 0.368761
v -0.026602 0.169299 0.368761
v -0.117543 0.144932 0.368761
v -0.184116 0.078358 0.368761
v -0.208484 -0.012583 0.368761
v -0.184116 -0.103523 0.368761
v -0.117543 -0.170097 0.368761
v -0.026602 -0.194464 0.368761
v 0.064339 -0.170097 0.368761
v 0.130912 -0.103523 0.368761
v 0.155279 -0.012583 0.368761
v -0.026602 -0.012583 0.395055
v 4.249920 -6.458509 0.183760
v 4.240704 -6.614788 0.138796
v 4.365096 -6.562012 0.138801
v 4.416551 -6.435598 0.138778
v -4.241308 -6.615408 0.138789
v -4.365718 -6.562634 0.138794
v -4.417173 -6.436202 0.138771
v -4.229402 -6.460754 0.183760
v 4.232908 6.436678 0.183761
v 4.417176 6.435689 0.138764
v 4.365608 6.562094 0.138787
v 4.241034 6.614588 0.138782
v -4.416564 6.435065 0.138772
v -4.364989 6.561479 0.138795
v -4.240414 6.613988 0.138789
v -4.232631 6.433799 0.183761
v -4.598722 -6.986534 -0.395055
v -4.723244 -6.933800 -0.395055
v -4.774753 -6.807477 -0.395055
v 4.774753 -6.807476 -0.395055
v 4.723243 -6.933797 -0.395055
v 4.598718 -6.986527 -0.395055
v -4.774754 6.807758 -0.395055
v -4.723130 6.934069 -0.395055
v -4.598440 6.986534 -0.395055
v 4.598439 6.986531 -0.395055
v 4.723130 6.934067 -0.395055
v 4.774754 6.807757 -0.395055
v 4.610086 6.816454 -0.104612
v 4.485432 6.868928 -0.104613
v -4.485237 6.868741 -0.104611
v -4.609891 6.816260 -0.104609
v -4.661499 6.689918 -0.104617
v -4.661691 -6.690085 -0.104617
v -4.610199 -6.816442 -0.104610
v -4.485712 -6.869189 -0.104611
v 4.485519 -6.868989 -0.104609
v 4.610001 -6.816244 -0.104607
v 4.661494 -6.689892 -0.104615
v 4.661692 6.690114 -0.104619
vt 0.985571 0.350841
vt 0.988650 0.349062
vt 0.989066 0.350519
vt 0.986660 0.351895
vt 0.992206 0.349061
vt 0.991838 0.350531
vt 0.995287 0.350838
vt 0.994232 0.351927
vt 0.997066 0.353917
vt 0.995608 0.354333
vt 0.997067 0.357473
vt 0.995596 0.357104
vt 0.995290 0.360553
vt 0.994201 0.359499
vt 0.992211 0.362332
vt 0.991795 0.360875
vt 0.988655 0.362333
vt 0.989023 0.360863
vt 0.985574 0.360556
vt 0.986629 0.359467
vt 0.983796 0.357477
vt 0.985253 0.357061
vt 0.983794 0.353921
vt 0.985264 0.354290
vt 0.989506 0.352095
vt 0.987829 0.353039
vt 0.991431 0.352115
vt 0.993088 0.353096
vt 0.994033 0.354773
vt 0.994012 0.356698
vt 0.993032 0.358355
vt 0.991355 0.359299
vt 0.989430 0.359279
vt 0.987773 0.358298
vt 0.986828 0.356621
vt 0.986849 0.354696
vt 0.989966 0.353838
vt 0.989099 0.354319
vt 0.990958 0.353855
vt 0.991809 0.354365
vt 0.992290 0.355233
vt 0.992273 0.356225
vt 0.991762 0.357075
vt 0.990895 0.357556
vt 0.989903 0.357539
vt 0.989052 0.357029
vt 0.988571 0.356161
vt 0.988588 0.355169
vt 0.990430 0.355697
vt 0.751993 0.721602
vt 0.750349 0.722235
vt 0.747673 0.718074
vt 0.749155 0.717715
vt 0.749870 0.723680
vt 0.745910 0.720955
vt 0.752006 0.821158
vt 0.750543 0.820691
vt 0.751688 0.818986
vt 0.749875 0.819088
vt 0.898913 0.723654
vt 0.898261 0.722038
vt 0.901115 0.718050
vt 0.902876 0.720932
vt 0.896796 0.721573
vt 0.899633 0.717690
vt 0.898919 0.819048
vt 0.898441 0.820494
vt 0.896830 0.818998
vt 0.896805 0.821130
vt 0.745916 0.821808
vt 0.899648 0.825016
vt 0.749174 0.825041
vt 0.902884 0.821772
vt 0.751700 0.723543
vt 0.896848 0.723708
vt 0.746289 0.823272
vt 0.901131 0.824656
vt 0.902549 0.714511
vt 0.906402 0.719576
vt 0.906405 0.823131
vt 0.906069 0.824623
vt 0.901059 0.828524
vt 0.747768 0.828544
vt 0.746261 0.828220
vt 0.742391 0.823165
vt 0.742390 0.719596
vt 0.742727 0.718104
vt 0.747747 0.714207
vt 0.901041 0.714186
vt 0.746285 0.719492
vt 0.746239 0.714530
vt 0.747692 0.824681
vt 0.742727 0.824656
vt 0.902510 0.823236
vt 0.902567 0.828200
vt 0.902505 0.719467
vt 0.906068 0.718083
vt 0.898270 0.820664
vt 0.898436 0.722207
vt 0.750352 0.820536
vt 0.750529 0.722067
vn 0.835306 0.482264 0.263980
vn 0.482264 0.835306 0.263980
vn 0.443844 0.768761 0.460444
vn 0.768761 0.443844 0.460444
vn 0.000000 0.964528 0.263980
vn 0.000000 0.887689 0.460444
vn -0.482264 0.835306 0.263980
vn -0.443844 0.768761 0.460444
vn -0.835306 0.482264 0.263980
vn -0.768761 0.443844 0.460444
vn -0.964528 0.000000 0.263980
vn -0.887689 0.000000 0.460444
vn -0.835306 -0.482264 0.263980
vn -0.768761 -0.443844 0.460444
vn -0.482264 -0.835306 0.263980
vn -0.443844 -0.768761 0.460444
vn -0.000000 -0.964528 0.263980
vn -0.000000 -0.887689 0.460444
vn 0.482264 -0.835306 0.263980
vn 0.443844 -0.768761 0.460444
vn 0.835306 -0.482264 0.263980
vn 0.768761 -0.443844 0.460444
vn 0.964528 0.000000 0.263980
vn 0.887689 0.000000 0.460444
vn 0.318605 0.551841 0.770690
vn 0.551841 0.318605 0.770690
vn 0.000000 0.637211 0.770690
vn -0.318605 0.551841 0.770690
vn -0.551841 0.318605 0.770690
vn -0.637211 0.000000 0.770690
vn -0.551841 -0.318605 0.770690
vn -0.318605 -0.551841 0.770690
vn 0.000000 -0.637211 0.770690
vn 0.318605 -0.551841 0.770690
vn 0.551841 -0.318605 0.770690
vn 0.637211 0.000000 0.770690
vn 0.188382 0.326286 0.926310
vn 0.326286 0.188381 0.926310
vn 0.000000 0.376763 0.926310
vn -0.188382 0.326286 0.926310
vn -0.326286 0.188381 0.926310
vn -0.376763 -0.000000 0.926310
vn -0.326286 -0.188381 0.926310
vn -0.188382 -0.326286 0.926310
vn -0.000000 -0.376763 0.926310
vn 0.188381 -0.326286 0.926310
vn 0.326286 -0.188381 0.926310
vn 0.376763 0.000000 0.926310
vn -0.000000 0.000000 1.000000
vn 0.591746 -0.001190 0.806123
vn 0.387105 -0.376169 0.841812
vn 0.531520 -0.523038 0.666271
vn 0.869247 -0.003632 0.494364
vn 0.002043 -0.600606 0.799543
vn 0.005424 -0.859306 0.511434
vn -0.584106 -0.001197 0.811677
vn -0.384969 -0.372846 0.844266
vn -0.146345 -0.109854 0.983115
vn -0.002028 -0.606394 0.795162
vn 0.001945 0.587842 0.808973
vn 0.380628 0.371446 0.846847
vn 0.530847 0.524036 0.666023
vn 0.005358 0.858772 0.512330
vn 0.598314 0.001285 0.801261
vn 0.869289 0.003617 0.494291
vn -0.002016 0.587708 0.809070
vn -0.379907 0.370856 0.847429
vn -0.144767 0.097395 0.984661
vn -0.591497 0.001254 0.806307
vn -0.005388 -0.859287 0.511466
vn -0.869315 0.003640 0.494245
vn -0.869230 -0.003608 0.494394
vn -0.005393 0.858793 0.512294
vn 0.156217 -0.108134 0.981786
vn 0.149011 0.101434 0.983619
vn -0.531905 -0.523403 0.665677
vn -0.530478 0.523647 0.666624
vn 0.618785 0.614319 0.489610
vn 0.007474 0.925752 0.378057
vn -0.007497 0.925746 0.378073
vn -0.618544 0.614062 0.490235
vn -0.931055 0.005149 0.364842
vn -0.931064 -0.005118 0.364821
vn -0.619906 -0.613527 0.489184
vn -0.007511 -0.926035 0.377363
vn 0.007535 -0.926029 0.377378
vn 0.619645 -0.613291 0.489810
vn 0.931057 -0.005134 0.364837
vn 0.931058 0.005133 0.364835
vn 0.000000 -0.000000 1.000000
vn 0.000000 -0.000000 1.000000
vn 0.000000 -0.000000 1.000000
vn 0.000000 -0.000000 1.000000
s 1
g OutletGeo
usemtl lambert3SG
f 1/1/1 2/2/2 14/3/3 13/4/4
f 2/2/2 3/5/5 15/6/6 14/3/3
f 3/5/5 4/7/7 16/8/8 15/6/6
f 4/7/7 5/9/9 17/10/10 16/8/8
f 5/9/9 6/11/11 18/12/12 17/10/10
f 6/11/11 7/13/13 19/14/14 18/12/12
f 7/13/13 8/15/15 20/16/16 19/14/14
f 8/15/15 9/17/17 21/18/18 20/16/16
f 9/17/17 10/19/19 22/20/20 21/18/18
f 10/19/19 11/21/21 23/22/22 22/20/20
f 11/21/21 12/23/23 24/24/24 23/22/22
f 12/23/23 1/1/1 13/4/4 24/24/24
f 13/4/4 14/3/3 26/25/25 25/26/26
f 14/3/3 15/6/6 27/27/27 26/25/25
f 15/6/6 16/8/8 28/28/28 27/27/27
f 16/8/8 17/10/10 29/29/29 28/28/28
f 17/10/10 18/12/12 30/30/30 29/29/29
f 18/12/12 19/14/14 31/31/31 30/30/30
f 19/14/14 20/16/16 32/32/32 31/31/31
f 20/16/16 21/18/18 33/33/33 32/32/32
f 21/18/18 22/20/20 34/34/34 33/33/33
f 22/20/20 23/22/22 35/35/35 34/34/34
f 23/22/22 24/24/24 36/36/36 35/35/35
f 24/24/24 13/4/4 25/26/26 36/36/36
f 25/26/26 26/25/25 38/37/37 37/38/38
f 26/25/25 27/27/27 39/39/39 38/37/37
f 27/27/27 28/28/28 40/40/40 39/39/39
f 28/28/28 29/29/29 41/41/41 40/40/40
f 29/29/29 30/30/30 42/42/42 41/41/41
f 30/30/30 31/31/31 43/43/43 42/42/42
f 31/31/31 32/32/32 44/44/44 43/43/43
f 32/32/32 33/33/33 45/45/45 44/44/44
f 33/33/33 34/34/34 46/46/46 45/45/45
f 34/34/34 35/35/35 47/47/47 46/46/46
f 35/35/35 36/36/36 48/48/48 47/47/47
f 36/36/36 25/26/26 37/38/38 48/48/48
f 37/38/38 38/37/37 49/49/49
f 38/37/37 39/39/39 49/49/49
f 39/39/39 40/40/40 49/49/49
f 40/40/40 41/41/41 49/49/49
f 41/41/41 42/42/42 49/49/49
f 42/42/42 43/43/43 49/49/49
f 43/43/43 44/44/44 49/49/49
f 44/44/44 45/45/45 49/49/49
f 45/45/45 46/46/46 49/49/49
f 46/46/46 47/47/47 49/49/49
f 47/47/47 48/48/48 49/49/49
f 48/48/48 37/38/38 49/49/49
s 2
f 53/50/50 52/101/51 87/52/52 88/53/53
f 52/51/51 51/54/54 86/55/55 87/90/52
f 56/56/56 55/57/57 57/58/58
f 55/100/57 54/59/59 57/58/58
f 61/60/60 60/99/61 78/96/62 79/63/63
f 60/61/61 59/64/64 89/65/65 78/62/62
f 64/66/66 63/67/67 65/68/68
f 63/98/67 62/69/69 65/68/68
f 51/54/54 54/59/59 85/70/70 86/55/55
f 59/64/64 53/50/50 88/53/53 89/65/65
f 56/56/56 62/69/69 82/71/71 83/72/72
f 64/66/66 61/60/60 79/63/63 80/73/73
f 50/74/74 57/58/58 54/59/59 51/54/54
f 58/75/75 50/74/74 53/50/50 59/64/64
f 57/58/58 65/68/68 62/69/69 56/56/56
f 65/68/68 58/75/75 61/60/60 64/66/66
f 50/74/74 52/101/51 53/50/50
f 50/74/74 51/54/54 52/51/51
f 54/59/59 55/100/57 84/76/76 85/70/70
f 55/57/57 56/56/56 83/72/72 84/92/76
f 58/75/75 60/99/61 61/60/60
f 58/75/75 59/64/64 60/61/61
f 62/69/69 63/98/67 81/77/77 82/71/71
f 63/67/67 64/66/66 80/73/73 81/94/77
f 79/63/63 78/96/62 76/97/78 75/79/79
f 79/63/63 75/79/79 74/80/80 80/73/73
f 81/94/77 80/73/73 74/80/80 73/81/81
f 82/71/71 81/77/77 73/95/81 72/82/82
f 82/71/71 72/82/82 68/83/83 83/72/72
f 84/92/76 83/72/72 68/83/83 67/84/84
f 85/70/70 84/76/76 67/93/84 66/85/85
f 85/70/70 66/85/85 71/86/86 86/55/55
f 87/90/52 86/55/55 71/86/86 70/87/87
f 88/53/53 87/52/52 70/91/87 69/88/88
f 88/53/53 69/88/88 77/89/89 89/65/65
f 78/62/62 89/65/65 77/89/89 76/78/78
s off
f 57/58/90 50/74/91 58/75/92 65/68/93
